<svg xmlns="http://www.w3.org/2000/svg" viewBox="0 0 240 60">
    <!-- IDBI Green Background -->
    <rect width="240" height="60" fill="#00836e" />
    
    <!-- White Circle Background for Icon -->
    <circle cx="34" cy="30" r="18" fill="#ffffff" />
    
    <!-- Orange Icon Inner Shape -->
    <g transform="translate(19.5, 15.5) scale(0.65)">
        <circle cx="22" cy="22" r="22" fill="#e9761a" />
        <path d="M 18 10 C 11 10 5 18 5 22 C 5 26 11 34 18 34 L 18 30 C 14 30 11 25 11 22 C 11 19 14 14 18 14 Z" fill="#ffffff" />
        <path d="M 26 10 C 33 10 39 18 39 22 C 39 26 33 34 26 34 L 26 30 C 30 30 33 25 33 22 C 33 19 30 14 26 14 Z" fill="#ffffff" />
        <circle cx="22" cy="13" r="3" fill="#ffffff" />
        <rect x="20" y="16" width="4" height="15" fill="#ffffff" />
    </g>
    
    <!-- Text IDBI BANK -->
    <text x="65" y="42" font-family="Arial, Helvetica, sans-serif" font-weight="900" font-size="28" fill="#ffffff" letter-spacing="1">IDBI BANK</text>
</svg>
