<svg xmlns="http://www.w3.org/2000/svg" viewBox="0 0 100 100">
    <!-- Green Background -->
    <rect width="100" height="100" fill="#00836e" />
    
    <!-- White Circle -->
    <circle cx="50" cy="50" r="42" fill="#ffffff" />
    
    <!-- Orange Icon Inner Shape -->
    <g transform="translate(25, 25) scale(1.15)">
        <circle cx="21.5" cy="21.5" r="21.5" fill="#e9761a" />
        <path d="M 18 10 C 11 10 5 18 5 22 C 5 26 11 34 18 34 L 18 30 C 14 30 11 25 11 22 C 11 19 14 14 18 14 Z" fill="#ffffff" />
        <path d="M 26 10 C 33 10 39 18 39 22 C 39 26 33 34 26 34 L 26 30 C 30 30 33 25 33 22 C 33 19 30 14 26 14 Z" fill="#ffffff" />
        <circle cx="22" cy="13" r="3" fill="#ffffff" />
        <rect x="20" y="16" width="4" height="15" fill="#ffffff" />
    </g>
</svg>
